<svg width="398" height="118" viewBox="0 0 398 118" fill="none" xmlns="http://www.w3.org/2000/svg">
<path d="M193 46.2986C138.52 17.6282 -20.5002 104.889 10.4995 57.3612" stroke="url(#paint0_linear_57_277)" stroke-width="5"/>
<path d="M2.6325 66.6416C2.6325 62.247 3.61384 58.3216 5.5765 54.8656C7.58184 51.367 10.2912 48.6576 13.7045 46.7376C17.1605 44.775 21.0218 43.7936 25.2885 43.7936C30.2805 43.7936 34.6538 45.0736 38.4085 47.6336C42.1632 50.1936 44.7872 53.735 46.2805 58.2576H35.9765C34.9525 56.1243 33.5018 54.5243 31.6245 53.4576C29.7898 52.391 27.6565 51.8576 25.2245 51.8576C22.6218 51.8576 20.2965 52.4763 18.2485 53.7136C16.2432 54.9083 14.6645 56.615 13.5125 58.8336C12.4032 61.0523 11.8485 63.655 11.8485 66.6416C11.8485 69.5856 12.4032 72.1883 13.5125 74.4496C14.6645 76.6683 16.2432 78.3963 18.2485 79.6336C20.2965 80.8283 22.6218 81.4256 25.2245 81.4256C27.6565 81.4256 29.7898 80.8923 31.6245 79.8256C33.5018 78.7163 34.9525 77.095 35.9765 74.9616H46.2805C44.7872 79.527 42.1632 83.0896 38.4085 85.6496C34.6965 88.167 30.3232 89.4256 25.2885 89.4256C21.0218 89.4256 17.1605 88.4656 13.7045 86.5456C10.2912 84.583 7.58184 81.8736 5.5765 78.4176C3.61384 74.9616 2.6325 71.0363 2.6325 66.6416ZM70.9575 89.6176C67.5442 89.6176 64.4722 88.871 61.7415 87.3776C59.0108 85.8416 56.8562 83.687 55.2775 80.9136C53.7415 78.1403 52.9735 74.9403 52.9735 71.3136C52.9735 67.687 53.7628 64.487 55.3415 61.7136C56.9628 58.9403 59.1602 56.807 61.9335 55.3136C64.7068 53.7776 67.8002 53.0096 71.2135 53.0096C74.6268 53.0096 77.7202 53.7776 80.4935 55.3136C83.2668 56.807 85.4428 58.9403 87.0215 61.7136C88.6428 64.487 89.4535 67.687 89.4535 71.3136C89.4535 74.9403 88.6215 78.1403 86.9575 80.9136C85.3362 83.687 83.1175 85.8416 80.3015 87.3776C77.5282 88.871 74.4135 89.6176 70.9575 89.6176ZM70.9575 81.8096C72.5788 81.8096 74.0935 81.4256 75.5015 80.6576C76.9522 79.847 78.1042 78.6523 78.9575 77.0736C79.8108 75.495 80.2375 73.575 80.2375 71.3136C80.2375 67.943 79.3415 65.3616 77.5495 63.5696C75.8002 61.735 73.6455 60.8176 71.0855 60.8176C68.5255 60.8176 66.3708 61.735 64.6215 63.5696C62.9148 65.3616 62.0615 67.943 62.0615 71.3136C62.0615 74.6843 62.8935 77.287 64.5575 79.1216C66.2642 80.9136 68.3975 81.8096 70.9575 81.8096ZM141.338 53.0736C145.69 53.0736 149.189 54.4176 151.834 57.1056C154.522 59.751 155.866 63.463 155.866 68.2416V89.0416H146.906V69.4576C146.906 66.6843 146.202 64.5723 144.794 63.1216C143.386 61.6283 141.466 60.8816 139.034 60.8816C136.602 60.8816 134.661 61.6283 133.21 63.1216C131.802 64.5723 131.098 66.6843 131.098 69.4576V89.0416H122.138V69.4576C122.138 66.6843 121.434 64.5723 120.026 63.1216C118.618 61.6283 116.698 60.8816 114.266 60.8816C111.791 60.8816 109.829 61.6283 108.378 63.1216C106.97 64.5723 106.266 66.6843 106.266 69.4576V89.0416H97.306V53.5856H106.266V57.8736C107.418 56.3803 108.89 55.207 110.682 54.3536C112.517 53.5003 114.522 53.0736 116.698 53.0736C119.471 53.0736 121.946 53.671 124.122 54.8656C126.298 56.0176 127.983 57.6816 129.178 59.8576C130.33 57.8096 131.994 56.167 134.17 54.9296C136.389 53.6923 138.778 53.0736 141.338 53.0736ZM174.608 58.7056C175.76 57.0843 177.339 55.7403 179.344 54.6736C181.392 53.5643 183.718 53.0096 186.32 53.0096C189.35 53.0096 192.081 53.7563 194.513 55.2496C196.987 56.743 198.928 58.8763 200.336 61.6496C201.787 64.3803 202.513 67.559 202.513 71.1856C202.513 74.8123 201.787 78.0336 200.336 80.8496C198.928 83.623 196.987 85.7776 194.513 87.3136C192.081 88.8496 189.35 89.6176 186.32 89.6176C183.718 89.6176 181.414 89.0843 179.408 88.0176C177.446 86.951 175.846 85.607 174.608 83.9856V105.938H165.648V53.5856H174.608V58.7056ZM193.361 71.1856C193.361 69.0523 192.913 67.2176 192.017 65.6816C191.163 64.103 190.011 62.9083 188.56 62.0976C187.152 61.287 185.616 60.8816 183.952 60.8816C182.331 60.8816 180.795 61.3083 179.344 62.1616C177.936 62.9723 176.784 64.167 175.888 65.7456C175.035 67.3243 174.608 69.1803 174.608 71.3136C174.608 73.447 175.035 75.303 175.888 76.8816C176.784 78.4603 177.936 79.6763 179.344 80.5296C180.795 81.3403 182.331 81.7456 183.952 81.7456C185.616 81.7456 187.152 81.319 188.56 80.4656C190.011 79.6123 191.163 78.3963 192.017 76.8176C192.913 75.239 193.361 73.3616 193.361 71.1856Z" fill="url(#paint1_linear_57_277)"/>
<path d="M291.581 70.5456C291.581 71.8256 291.496 72.9776 291.325 74.0016H265.405C265.618 76.5616 266.514 78.567 268.093 80.0176C269.672 81.4683 271.613 82.1936 273.917 82.1936C277.245 82.1936 279.613 80.7643 281.021 77.9056H290.685C289.661 81.319 287.698 84.135 284.797 86.3536C281.896 88.5296 278.333 89.6176 274.109 89.6176C270.696 89.6176 267.624 88.871 264.893 87.3776C262.205 85.8416 260.093 83.687 258.557 80.9136C257.064 78.1403 256.317 74.9403 256.317 71.3136C256.317 67.6443 257.064 64.423 258.557 61.6496C260.05 58.8763 262.141 56.743 264.829 55.2496C267.517 53.7563 270.61 53.0096 274.109 53.0096C277.48 53.0096 280.488 53.735 283.133 55.1856C285.821 56.6363 287.89 58.7056 289.341 61.3936C290.834 64.039 291.581 67.0896 291.581 70.5456ZM282.301 67.9856C282.258 65.6816 281.426 63.847 279.805 62.4816C278.184 61.0736 276.2 60.3696 273.853 60.3696C271.634 60.3696 269.757 61.0523 268.221 62.4176C266.728 63.7403 265.81 65.5963 265.469 67.9856H282.301ZM308.361 59.0896C309.513 57.2123 311.006 55.7403 312.841 54.6736C314.718 53.607 316.852 53.0736 319.241 53.0736V62.4816H316.873C314.057 62.4816 311.924 63.143 310.473 64.4656C309.065 65.7883 308.361 68.0923 308.361 71.3776V89.0416H299.401V53.5856H308.361V59.0896ZM340.124 89.6176C337.223 89.6176 334.62 89.1056 332.316 88.0816C330.012 87.015 328.177 85.5856 326.812 83.7936C325.489 82.0016 324.764 80.0176 324.636 77.8416H333.66C333.831 79.207 334.492 80.3376 335.644 81.2336C336.839 82.1296 338.311 82.5776 340.06 82.5776C341.767 82.5776 343.089 82.2363 344.028 81.5536C345.009 80.871 345.5 79.9963 345.5 78.9296C345.5 77.7776 344.903 76.9243 343.708 76.3696C342.556 75.7723 340.7 75.1323 338.14 74.4496C335.495 73.8096 333.319 73.1483 331.612 72.4656C329.948 71.783 328.497 70.7376 327.26 69.3296C326.065 67.9216 325.468 66.023 325.468 63.6336C325.468 61.671 326.023 59.879 327.132 58.2576C328.284 56.6363 329.905 55.3563 331.996 54.4176C334.129 53.479 336.625 53.0096 339.484 53.0096C343.708 53.0096 347.079 54.0763 349.596 56.2096C352.113 58.3003 353.5 61.1376 353.756 64.7216H345.18C345.052 63.3136 344.455 62.2043 343.388 61.3936C342.364 60.5403 340.977 60.1136 339.228 60.1136C337.607 60.1136 336.348 60.4123 335.452 61.0096C334.599 61.607 334.172 62.439 334.172 63.5056C334.172 64.7003 334.769 65.6176 335.964 66.2576C337.159 66.855 339.015 67.4736 341.532 68.1136C344.092 68.7536 346.204 69.415 347.868 70.0976C349.532 70.7803 350.961 71.847 352.156 73.2976C353.393 74.7056 354.033 76.583 354.076 78.9296C354.076 80.9776 353.5 82.8123 352.348 84.4336C351.239 86.055 349.617 87.335 347.484 88.2736C345.393 89.1696 342.94 89.6176 340.124 89.6176ZM395.671 70.5456C395.671 71.8256 395.586 72.9776 395.415 74.0016H369.495C369.708 76.5616 370.604 78.567 372.183 80.0176C373.762 81.4683 375.703 82.1936 378.007 82.1936C381.335 82.1936 383.703 80.7643 385.111 77.9056H394.775C393.751 81.319 391.788 84.135 388.887 86.3536C385.986 88.5296 382.423 89.6176 378.199 89.6176C374.786 89.6176 371.714 88.871 368.983 87.3776C366.295 85.8416 364.183 83.687 362.647 80.9136C361.154 78.1403 360.407 74.9403 360.407 71.3136C360.407 67.6443 361.154 64.423 362.647 61.6496C364.14 58.8763 366.231 56.743 368.919 55.2496C371.607 53.7563 374.7 53.0096 378.199 53.0096C381.57 53.0096 384.578 53.735 387.223 55.1856C389.911 56.6363 391.98 58.7056 393.431 61.3936C394.924 64.039 395.671 67.0896 395.671 70.5456ZM386.391 67.9856C386.348 65.6816 385.516 63.847 383.895 62.4816C382.274 61.0736 380.29 60.3696 377.943 60.3696C375.724 60.3696 373.847 61.0523 372.311 62.4176C370.818 63.7403 369.9 65.5963 369.559 67.9856H386.391Z" fill="url(#paint2_linear_57_277)"/>
<path d="M263.191 25.992L238.615 93H222.295L197.719 25.992H212.119L230.551 79.272L248.887 25.992H263.191Z" fill="white"/>
<rect x="181" y="90.9584" width="100" height="3.27778" fill="url(#paint3_linear_57_277)"/>
<defs>
<linearGradient id="paint0_linear_57_277" x1="7" y1="72.0001" x2="191.792" y2="38.3645" gradientUnits="userSpaceOnUse">
<stop stop-color="#2541CD"/>
<stop offset="1" stop-color="white"/>
</linearGradient>
<linearGradient id="paint1_linear_57_277" x1="205" y1="66.375" x2="9.74262e-07" y2="66.375" gradientUnits="userSpaceOnUse">
<stop stop-color="white"/>
<stop offset="0.9999" stop-color="#2541CD"/>
</linearGradient>
<linearGradient id="paint2_linear_57_277" x1="398" y1="66.375" x2="254" y2="66.375" gradientUnits="userSpaceOnUse">
<stop stop-color="#2541CD"/>
<stop offset="1" stop-color="white"/>
</linearGradient>
<linearGradient id="paint3_linear_57_277" x1="181" y1="92.5973" x2="281" y2="92.5973" gradientUnits="userSpaceOnUse">
<stop stop-color="#E2E9FF"/>
<stop offset="0.5" stop-color="white"/>
<stop offset="1" stop-color="#CFDCFF"/>
</linearGradient>
</defs>
</svg>
